<svg xmlns="http://www.w3.org/2000/svg" width="29" height="29" viewBox="0 0 29 29">
  <g id="Edit" transform="translate(-672 -113)">
    <path id="Rectangle_247" data-name="Rectangle 247" d="M0,0H24a5,5,0,0,1,5,5V29a0,0,0,0,1,0,0H5a5,5,0,0,1-5-5V0A0,0,0,0,1,0,0Z" transform="translate(672 113)" fill="#d1d1d1"/>
    <path id="Path_638" data-name="Path 638" d="M3,12.851v2.071a.337.337,0,0,0,.341.341H5.412a.32.32,0,0,0,.238-.1l7.44-7.433L10.535,5.173,3.1,12.606a.335.335,0,0,0-.1.245Zm12.066-7.1a.678.678,0,0,0,0-.961L13.472,3.2a.678.678,0,0,0-.961,0L11.264,4.444,13.819,7l1.247-1.247Z" transform="translate(677 118.003)"/>
  </g>
</svg>
