<svg xmlns="http://www.w3.org/2000/svg" width="58" height="58" viewBox="0 0 58 58">
  <g id="Group_2117" data-name="Group 2117" transform="translate(-575 -51)">
    <g id="cancel" transform="translate(-479 1)">
      <path id="Rectangle_246" data-name="Rectangle 246" d="M0,0H38A20,20,0,0,1,58,20V58a0,0,0,0,1,0,0H20A20,20,0,0,1,0,38V0A0,0,0,0,1,0,0Z" transform="translate(1054 50)" fill="#d1d1d1"/>
      <path id="Path_610" data-name="Path 610" d="M39.379,16.655a.843.843,0,0,0-1.157,0L28.017,26.86,17.811,16.655a.818.818,0,1,0-1.157,1.157L26.86,28.017,16.655,38.222a.843.843,0,0,0,0,1.157.821.821,0,0,0,1.157,0L28.017,29.174,38.222,39.379a.821.821,0,0,0,1.157,0,.843.843,0,0,0,0-1.157L29.174,28.017,39.379,17.811A.843.843,0,0,0,39.379,16.655Z" transform="translate(1054.575 50.574)"/>
    </g>
  </g>
</svg>
