<svg xmlns="http://www.w3.org/2000/svg" width="21.092" height="13.182" viewBox="0 0 21.092 13.182">
  <g id="Group_1831" data-name="Group 1831" transform="translate(0 -3)">
    <path id="Path_613" data-name="Path 613" d="M8.651,6a2.636,2.636,0,1,0,2.577,2.636A2.636,2.636,0,0,0,8.651,6Z" transform="translate(1.895 0.955)" fill="#00a333"/>
    <path id="Path_614" data-name="Path 614" d="M10.546,4.977a9.99,9.99,0,0,1,8.2,4.614,9.99,9.99,0,0,1-8.2,4.614,9.99,9.99,0,0,1-8.2-4.614,9.99,9.99,0,0,1,8.2-4.614m0-1.977C5.813,3,2.212,5.812,0,9.591c2.212,3.779,5.813,6.591,10.546,6.591s8.334-2.812,10.546-6.591C18.88,5.812,15.277,3,10.546,3Z" fill="#00a333"/>
  </g>
</svg>
