<svg id="Layer_2" data-name="Layer 2" xmlns="http://www.w3.org/2000/svg" width="24" height="24" viewBox="0 0 24 24">
  <g id="download">
    <rect id="Rectangle_140" data-name="Rectangle 140" width="24" height="24" fill="#00a333" opacity="0"/>
    <rect id="Rectangle_141" data-name="Rectangle 141" width="16" height="2" rx="1" transform="translate(4 18)" fill="#00a333"/>
    <rect id="Rectangle_142" data-name="Rectangle 142" width="4" height="2" rx="1" transform="translate(4 20) rotate(-90)" fill="#00a333"/>
    <rect id="Rectangle_143" data-name="Rectangle 143" width="4" height="2" rx="1" transform="translate(18 20) rotate(-90)" fill="#00a333"/>
    <path id="Path_563" data-name="Path 563" d="M12,10a1,1,0,0,0-.58.18L7.42,13a1,1,0,1,0,1.16,1.63L12,12.24l3.4,2.56a1,1,0,0,0,1.2-1.6l-4-3A1,1,0,0,0,12,10Z" transform="translate(0 -7)" fill="#00a333"/>
    <path id="Path_564" data-name="Path 564" d="M12,3a1,1,0,0,0-1,1v8a1,1,0,1,0,2,0V4A1,1,0,0,0,12,3Z" transform="translate(0 2)" fill="#00a333"/>
  </g>
</svg>
