<svg xmlns="http://www.w3.org/2000/svg" width="18" height="18" viewBox="0 0 18 18">
  <path id="Path_420" data-name="Path 420" d="M11,2a9,9,0,1,0,9,9A9,9,0,0,0,11,2Zm.792,14.184V17.3H10.217V16.139A3.633,3.633,0,0,1,7.5,13.475l1.485-.6a2.377,2.377,0,0,0,2.16,1.881c.837,0,1.782-.432,1.782-1.449,0-.864-.63-1.314-2.052-1.827-.99-.351-3.015-.927-3.015-2.979a2.77,2.77,0,0,1,2.358-2.664V4.7h1.575V5.816a3.083,3.083,0,0,1,2.394,2.007l-1.422.6a1.739,1.739,0,0,0-1.71-1.206c-.63,0-1.629.333-1.629,1.251,0,.855.774,1.179,2.376,1.71,2.16.747,2.709,1.845,2.709,3.1A2.984,2.984,0,0,1,11.792,16.184Z" transform="translate(-2 -2)" fill="#fff"/>
</svg>
