<svg xmlns="http://www.w3.org/2000/svg" width="25" height="25" viewBox="0 0 25 25">
  <path id="Path_630" data-name="Path 630" d="M17.766,0a.931.931,0,0,1,.918.918h0V2.212C22.862,2.577,25,4.656,25,8.393h0V18.731C25,22.888,22.367,25,17.186,25H7.814C2.633,25,0,22.888,0,18.731H0V8.393A5.523,5.523,0,0,1,2.874,3.086h0l.136-.07a1.046,1.046,0,0,1,.882.036.87.87,0,0,1,.486.819.892.892,0,0,1-.585.763c-1.28.686-1.884,1.88-1.884,3.759h0v.332H19.529a.877.877,0,1,1,0,1.747H1.908v8.259c0,3.173,1.715,4.489,5.906,4.511h9.372c4.13,0,5.894-1.349,5.894-4.522h0V8.382c0-2.764-1.341-4.1-4.4-4.423h0V4.8a.947.947,0,0,1-.993.758.931.931,0,0,1-.927-.824h0V.841L16.781.7a.858.858,0,0,1,.291-.474A1.008,1.008,0,0,1,17.766,0Zm.55,17.745.154.009a1.255,1.255,0,0,1,.7.312,1.061,1.061,0,0,1,.358.786,1.212,1.212,0,1,1-1.208-1.106Zm-5.791,0,.151.009a1.145,1.145,0,0,1,1.056,1.1,1.212,1.212,0,1,1-1.208-1.106Zm-5.791,0,.154.009a1.255,1.255,0,0,1,.7.312,1.061,1.061,0,0,1,.358.786,1.16,1.16,0,0,1-1.208,1.106,1.11,1.11,0,1,1,0-2.211Zm11.582-4.478.154.009a1.255,1.255,0,0,1,.7.312,1.061,1.061,0,0,1,.358.786,1.212,1.212,0,1,1-1.208-1.106Zm-5.791,0,.151.009a1.145,1.145,0,0,1,1.056,1.1,1.212,1.212,0,1,1-1.208-1.106Zm-5.791,0,.154.009a1.255,1.255,0,0,1,.7.312,1.061,1.061,0,0,1,.358.786A1.16,1.16,0,0,1,6.739,15.48a1.11,1.11,0,1,1,0-2.211ZM7.277.133a.94.94,0,0,1,.96.786h0V2.124H13.7A.916.916,0,0,1,14.65,3a.916.916,0,0,1-.954.873H8.213v.873a.838.838,0,0,1-.284.622,1,1,0,0,1-.682.252h0l-.14-.013a.9.9,0,0,1-.791-.872h0V.919L6.343.788A.956.956,0,0,1,7.277.133Z" fill="#057451"/>
</svg>
